# xmcd
#
# Track frame offsets: 
#        150
#        21027
#        41380
#        64195
#        85237
#        102552
#        118245
#        129440
#        150985
#
# Disc length: 2284 seconds
#
# Revision: 2
# Processed by: cddbd v1.5.2PL0 Copyright (c) Steve Scherf et al.
# Submitted via: ExactAudioCopy v1.0b3
#
DISCID=6d08ea09
DTITLE=Russ Barenberg - Moving Pictures
DYEAR=1988
DGENRE=Bluegrass
TTITLE0=Our Time
TTITLE1=Through the Gates
TTITLE2=The Talking
TTITLE3=Return to the Brandywine
TTITLE4=Magic Foot
TTITLE5=Open Arms
TTITLE6=Keep it Up - Prince Charlie
TTITLE7=Edge of the Atlantic
TTITLE8=Les Veuves de la Coulée (Widows of the Creek)
EXTD=
EXTT0=
EXTT1=
EXTT2=
EXTT3=
EXTT4=
EXTT5=
EXTT6=
EXTT7=
EXTT8=
PLAYORDER=
